<svg id="Layer_1" data-name="Layer 1" xmlns="http://www.w3.org/2000/svg" viewBox="0 0 512 512"><path d="M298,357.46a85.71,85.71,0,0,1-60.79-25.14L202,297.14l37.26-37.25,35.18,35.18a33.46,33.46,0,0,0,47.06,0L435.19,181.42a33.32,33.32,0,0,0,0-47.06L400,99.18a33.3,33.3,0,0,0-47.06,0l-53.08,53.08L262.61,115l53.08-53.08a86.05,86.05,0,0,1,121.57,0L472.45,97.1a86.07,86.07,0,0,1,0,121.57L358.8,332.32A85.71,85.71,0,0,1,298,357.46Z"/><path d="M144.88,484.05a85.69,85.69,0,0,1-60.79-25.14L48.91,423.73a86.05,86.05,0,0,1,0-121.57L162.56,188.51a86.05,86.05,0,0,1,121.57,0l35.18,35.18L282.06,261l-35.19-35.19a33.45,33.45,0,0,0-47.05,0L86.17,339.41a33.44,33.44,0,0,0,0,47.06l35.18,35.18a33.3,33.3,0,0,0,47.06,0l53.08-53.08,37.26,37.26-53.09,53.08A85.67,85.67,0,0,1,144.88,484.05Z"/></svg>