<svg id="Layer_1" data-name="Layer 1" xmlns="http://www.w3.org/2000/svg" viewBox="0 0 512 512"><defs><style>.cls-1{fill:#fff;}</style></defs><path class="cls-1" d="M286.25,334.63A69.42,69.42,0,0,1,237,314.26l-28.51-28.5,30.19-30.19,28.5,28.51a27.1,27.1,0,0,0,38.13,0L397.4,192a27,27,0,0,0,0-38.13l-28.51-28.51a27,27,0,0,0-38.13,0l-43,43-30.18-30.18,43-43a69.72,69.72,0,0,1,98.5,0l28.51,28.51a69.74,69.74,0,0,1,0,98.5L335.5,314.26A69.42,69.42,0,0,1,286.25,334.63Z"/><path class="cls-1" d="M162.17,437.2a69.42,69.42,0,0,1-49.25-20.37L84.41,388.32a69.74,69.74,0,0,1,0-98.5l92.09-92.09a69.74,69.74,0,0,1,98.5,0l28.51,28.51-30.19,30.19-28.5-28.51a27.1,27.1,0,0,0-38.13,0L114.6,320a27.1,27.1,0,0,0,0,38.13l28.51,28.51a27,27,0,0,0,38.13,0l43-43,30.18,30.18-43,43A69.41,69.41,0,0,1,162.17,437.2Z"/></svg>
